<svg xmlns="http://www.w3.org/2000/svg" viewBox="0 0 2991 3333" shape-rendering="geometricPrecision" text-rendering="geometricPrecision" image-rendering="optimizeQuality" fill-rule="evenodd" clip-rule="evenodd"><path d="M290 1507c-134 40-191 178-189 334 1 71 14 145 37 217s56 140 98 198c96 134 238 215 404 158 13-4 26-3 37 2 3-1 5-2 9-3 42-13 80-25 115-36 39-12 76-22 111-32 27-7 55 9 62 35 1 2 1 4 1 6l15 66c38 170 75 335 125 468 1 2 7 21 14 39 30 84 63 174 105 227 37 46 88 60 168-2 15-14 30-27 45-40 48-41 95-82 113-143-11-15-32-24-53-33-70-30-139-59-121-206l3-21c6-43 8-65 6-74-1-5-12-15-33-34l-8-7c-41-38-56-92-55-150 1-69 23-144 46-198 7-17 22-28 40-31 521-72 839 18 1092 91 11 3 22 6 32 9-226-233-411-585-537-947-134-382-202-776-185-1052-207 305-570 790-1434 1108-1 0-2 1-3 1l-7 2c-9 3-10 2-12 4s0 2-3 7c0 1 1-2-9 14-7 11-17 18-28 22zm2153-74c0 125-123 350-199 354 131 256 291 478 472 610 11 1 20 2 30 2 18-1 35-5 54-17 41-42 67-107 81-189 41-253-42-650-181-1032-139-383-334-748-516-937-67-69-130-113-184-121-14-2-22-3-26-1s-12 8-23 19c-5 5-11 11-17 18-1 2-1 3-2 5-85 176-57 555 53 962 84-39 459 5 459 327zm268 1065c-11 2-22 1-33-5-9-2-19-4-29-6-66-14-131-32-201-52-239-68-539-154-1022-92-15 41-27 90-28 134 0 32 6 59 23 75l8 7c36 33 54 49 63 82 8 28 4 57-3 113l-3 21c-9 71 26 86 60 101 45 19 90 38 112 100 4 9 5 19 3 30-20 104-85 160-150 215-14 12-29 25-42 37l-3 3c-141 113-238 81-312-11-53-66-88-164-122-255-3-8-6-16-14-38-51-138-89-307-128-481l-4-18c-19 6-39 11-58 17-39 12-77 23-113 35-5 1-8 3-10 4-24 9-34 14-55 4-207 61-381-40-497-202-48-67-86-145-112-226S1 1924 0 1843c-2-193 71-365 242-425 8-14 13-21 24-30 12-10 22-13 42-21l7-2c1 0 2-1 2-1 888-326 1228-835 1422-1125 54-81 97-145 140-188 21-21 37-34 59-42s45-9 76-4c78 12 159 66 241 151 192 199 395 577 538 972 144 396 230 811 186 1082-17 105-53 191-113 248-2 2-4 4-7 5-38 26-74 36-111 37-13 0-26 0-38-1z"/></svg>