<svg xmlns="http://www.w3.org/2000/svg" viewBox="0 0 2690 2691" shape-rendering="geometricPrecision" text-rendering="geometricPrecision" image-rendering="optimizeQuality" fill-rule="evenodd" clip-rule="evenodd"><path d="M2329 949c37 0 67 30 67 67s-30 67-67 67h-655c-37 0-67-30-67-67V350c0-37 30-67 67-67s67 30 67 67v498l208-220 574-607c25-27 67-28 94-3s28 67 3 94l-577 611-215 227h502zM949 360c0-37 30-67 67-67s67 30 67 67v655c0 37-30 67-67 67H350c-37 0-67-30-67-67s30-67 67-67h498L629 741 20 166c-27-25-28-67-3-94s67-28 94-3l613 579 225 212V359zM360 1741c-37 0-67-30-67-67s30-67 67-67h655c37 0 67 30 67 67v666c0 37-30 67-67 67s-67-30-67-67v-498l-207 219-575 609c-25 27-67 28-94 3s-28-67-3-94l579-613 212-225H359zm1380 589c0 37-30 67-67 67s-67-30-67-67v-655c0-37 30-67 67-67h666c37 0 67 30 67 67s-30 67-67 67h-498l220 208 607 574c27 25 28 67 3 94s-67 28-94 3l-611-577-227-214v501z" fill-rule="nonzero"/></svg>