<svg xmlns="http://www.w3.org/2000/svg" viewBox="0 0 333330 320837" shape-rendering="geometricPrecision" text-rendering="geometricPrecision" image-rendering="optimizeQuality" fill-rule="evenodd" clip-rule="evenodd"><path d="M26493 24898c-2929 0-5292-2363-5292-5292 0-2930 2363-5292 5292-5292h140802V5291c0-2930 2363-5292 5292-5292 2930 0 5292 2363 5292 5292v9023h131068c2930 0 5292 2363 5292 5292 0 2930-2363 5292-5292 5292h-12190v135094h12757c2930 0 5292 2362 5292 5292s-2363 5292-5292 5292H178635v15006c283 189 472 378 661 567l32413 30806c2079 1984 2173 5386 189 7465-1985 2079-5387 2173-7465 189l-25704-24475v26837c0 2930-2363 5292-5292 5292-2930 0-5292-2362-5292-5292v-27877l-26837 25514c-2079 1985-5481 1985-7465-189-1985-2079-1985-5481 189-7465l32413-30806c472-473 1134-851 1701-1134v-14439H96328c-2930 0-5292-2362-5292-5292 0-2929 2363-5292 5292-5292h189846V24897H26494zm182839 262165c-23565 0-8047 1851-4842-23755 4791-38299 41218-38301 46587 0 3448 24639 18220 23755-4841 23755h-9205c-35 6270-1016 9478 5495 13002 3314 1793 9506 3143 14776 5218 8050-6883 22353-2349 23842-14971 229-1924-4311-9255-5349-12772-2225-3548-3023-9181-588-12931 968-1490 555-6922 555-8972 0-20400 35747-20407 35747 0 0 2581-594 7322 807 9350 2345 3392 1133 9406-841 12554-1266 3695-6086 10679-5674 12772 3472 17649 27530-1244 27527 30522l-67579 1h-76113l-28-1-59751 1v-1l-75420 1c4-32295 30487-14412 32825-34217 256-2157-4832-10375-5996-14317-2494-3978-3389-10292-659-14495 1085-1670 622-7759 622-10058 0-22868 40072-22877 40072 0 0 2894-665 8207 905 10481 2629 3802 1270 10543-942 14072-1419 4142-6822 11971-6361 14317 1681 8547 22983 14345 30412 17497 4182-2148 7571-4701 7918-7647 182-1536-3441-7388-4270-10195-1776-2832-2413-7329-469-10322 773-1189 443-5526 443-7162 0-16285 28536-16291 28536 0 0 2061-474 5845 644 7464 1872 2707 905 7508-671 10021-1010 2950-4858 8525-4529 10195 2101 10678 13641 4603 19104 12076 5153-4056 15405-5179 21666-8929 5718-3426 4747-6870 4709-12555h-9064v1zM34 126766c-756-14742 11340-18616 27782-17576l20789 23152 20317-22868 50367-283c18994 2173 15025 22113 0 22868H86309l-7749 46587-5859 30295c-1512 5009-4536 8221-8977 9922l-28633 189c-5765-850-9167-4252-10206-10206l-4441-25098c-11718 1134-15687-7182-16915-19183L127 126671l-94 94zm47343-80606c14080 0 25515 11434 25515 25514S61457 97189 47377 97189 21862 85755 21862 71674c0-14080 11434-25514 25515-25514zm945 75314l-16159-17765 4725-3780c6993 2930 13986 2930 20884 0l6520 3875-15970 17671z" fill-rule="nonzero"/></svg>