<svg xmlns="http://www.w3.org/2000/svg" viewBox="0 0 333333 333333" shape-rendering="geometricPrecision" text-rendering="geometricPrecision" image-rendering="optimizeQuality" fill-rule="evenodd" clip-rule="evenodd"><path d="M265446 109668c-60 511-211 1017-459 1494-268 1142-402 2436-400 3886 13 137 20 277 20 419v94226c1188 2952 2649 5168 4409 6571 1628 1298 3641 1924 6075 1814 170-20 342-31 517-31h27019v13c68 0 136 2 204 4 4198 205 7256-924 9283-3256 2301-2645 3629-6922 4090-12653l11 1 6-69 8219-85026c4-132 13-265 29-398 576-4832-493-7989-2866-9815-2735-2106-7276-2991-13159-2970-136 13-274 20-414 20h-30432v-17c-4646 6-8055 925-10149 2809-859 774-1529 1765-2004 2979zm-29787 104257c-655-613-1120-1424-1300-2339l-43396-78114c-4818-8054-9172-8259-13374-5754-2980 1776-6120 4646-9265 7519-1895 1733-3794 3468-5401 4795l-7452 6157-4-5-47 39c-5425 4374-11552 6718-17360 7200-3813 317-7527-174-10864-1425-3452-1294-6472-3391-8770-6243-2475-3070-4089-6959-4473-11591l18-2c-90-1100 236-2235 1003-3147l23718-28222c-4990-70-9403 609-13554 1902-6328 1971-12230 5408-18691 9815-740 581-1673 927-2687 927H76393v51626l114 33005h15883v4c1509 1 2976 788 3779 2192l19736 34417c2877 5018 5414 9358 8611 12217 2993 2676 6902 4330 12909 4509 2258 67 4414-326 6467-1174 1261-522 2498-1223 3711-2103l-12793-23938c-1128-2115-328-4744 1787-5872s4744-328 5872 1787l13906 26020c5178 2632 9867 3452 14087 2538 3860-837 7496-3154 10916-6890l-20036-31456c-1287-2021-694-4704 1328-5991 2021-1287 4704-694 5991 1328l21116 33152c3703 1507 7258 1852 10650 919 3238-891 6475-2964 9711-6314l-19135-36019c-1128-2124-320-4761 1804-5889s4761-320 5889 1804l19795 37261c2574 1493 5553 1882 8417 1412 2507-411 4911-1481 6885-3048 1906-1513 3381-3469 4107-5709 780-2410 716-5238-583-8311l-1660-2989zm5748-7540h14485v-90919c0-116 4-231 13-345-6-1419 82-2761 261-4030l-14726-9818c-81-54-159-110-235-168-1921-1287-4219-2898-6531-4517-8373-5867-16994-11907-26289-14347-5028-1320-10817-2201-16740-2311-5173-96-10448 388-15402 1671-2964 768-5822 1829-8479 3233-2361 1247-4557 2769-6516 4598l-9880 11757c-302 587-730 1091-1244 1481l-27263 32442c404 2070 1219 3807 2339 5197 1298 1610 3030 2805 5026 3553 2110 791 4544 1094 7120 881 4160-345 8593-2057 12580-5256l-4-4 7453-6157c1898-1568 3498-3030 5094-4489 3496-3194 6985-6383 10661-8574 8500-5067 16951-5236 25316 8795l78 136 42884 77190zm16104 8715h-11587c1577 4582 1497 8926 249 12780-1283 3962-3781 7334-6966 9862-3117 2475-6924 4165-10902 4818-3890 639-7959 288-11738-1280-4401 4594-9026 7491-13859 8820-4850 1334-9761 1065-14730-677-4715 5227-9934 8507-15678 9752-5851 1268-12067 393-18661-2716-2052 1609-4200 2879-6446 3807-3183 1316-6519 1924-10008 1821-8355-249-13980-2717-18458-6721-4273-3820-7146-8719-10381-14362l-18477-32221H75542c-829 4164-2282 7691-4452 10485-3655 4709-9019 7209-16427 7058-82 5-165 7-248 7H29875c-6183 1003-11485-519-15637-5330-3680-4264-6194-11166-7266-21328-20-122-35-246-45-372L468 119286c-1282-8638 134-14742 3606-18911 3503-4206 8777-6108 15276-6413 179-22 361-34 546-34h33080v17c6242-69 11608 965 15691 3604 3277 2119 5629 5110 6841 9172h26926c6771-4562 13105-8150 20114-10333 6880-2143 14254-2896 23069-1840l9016-10728c157-215 335-419 536-607 2575-2434 5454-4443 8544-6074 3245-1715 6734-3011 10351-3948 5752-1490 11814-2053 17718-1943 6699 124 13201 1109 18817 2583 10751 2822 20032 9325 29046 15641 2013 1410 4009 2809 6389 4399 81 47 162 96 241 150l13084 8722c663-917 1420-1759 2270-2524 3745-3371 9100-5012 15970-5022v-17h30432c120 0 239 5 356 15 7790-31 14134 1392 18527 4774 4888 3764 7181 9497 6202 17713-8 72-19 143-31 213l-8211 84938 10 1c-609 7589-2620 13542-6200 17658-3815 4386-9115 6552-16058 6259v9h-27042c-4676 241-8650-1033-11981-3689-2454-1956-4473-4632-6093-7972zM37970 182069c3249 0 5883 2634 5883 5883s-2634 5883-5883 5883-5882-2633-5882-5883c0-3249 2633-5883 5882-5883zm256213 0c3249 0 5882 2634 5882 5883s-2633 5883-5882 5883-5883-2633-5883-5883c0-3249 2634-5883 5883-5883zM67678 157009l-158-45930c0-87 3-174 8-260-472-2864-1713-4792-3556-5984-2525-1632-6305-2263-10943-2208h-51v17H19898c-56 0-113-2-169-4-4089 193-7224 1173-8981 3284-1885 2264-2561 6164-1646 12210 19 126 32 250 39 375l6467 80114 8 141c872 8293 2662 13622 5192 16554 2004 2322 4740 2985 8031 2385 257-46 513-69 766-69v-16h24810c158 0 314 9 468 25 4387 74 7425-1230 9331-3686 2226-2867 3307-7376 3476-13196h-14v-43753zm130835-27831l9 17" fill-rule="nonzero"/></svg>