<svg xmlns="http://www.w3.org/2000/svg" viewBox="0 0 3333.33 2582.61" shape-rendering="geometricPrecision" text-rendering="geometricPrecision" image-rendering="optimizeQuality" fill-rule="evenodd" clip-rule="evenodd"><path d="M67.17 562.64h121.97V295.22c0-37.19 30.15-67.35 67.34-67.35h119.61V67.34C376.09 30.15 406.24 0 443.44 0h1092.14c37.19 0 67.34 30.15 67.34 67.34v160.53h1472.87c37.19 0 67.34 30.15 67.34 67.35v267.42h122.86c37.19 0 67.34 30.15 67.34 67.34 0 4.88-.52 9.64-1.51 14.23l-235.46 1731.02c-7.68 56.44-32.35 108.79-70.21 146.63-37.51 37.49-87.06 60.76-145.4 60.76H398.69c-58.66 0-109.25-23.49-147.2-61.42-38.13-38.12-62.78-90.87-68.79-148.2L.35 636.83c-3.78-36.9 23.07-69.88 59.98-73.66 2.3-.24 4.58-.35 6.84-.35v-.17zm189.31 134.69h-114.7l174.56 1661.98c2.78 26.56 13.48 50.29 29.86 66.66 13.56 13.56 31.61 21.95 52.49 21.95h2482.06c20.26 0 37.55-8.16 50.69-21.3 16.86-16.85 28.05-41.61 31.81-69.29l225.8-1660.01H256.48zm67.35-334.77v199.62l2684.61-28.54V362.57H1535.58c-37.19 0-67.35-30.15-67.35-67.34V134.7H510.78v160.53c0 37.19-30.15 67.34-67.34 67.34H323.83z" fill-rule="nonzero"/></svg>