<svg xmlns="http://www.w3.org/2000/svg" viewBox="0 0 333333 265426" shape-rendering="geometricPrecision" text-rendering="geometricPrecision" image-rendering="optimizeQuality" fill-rule="evenodd" clip-rule="evenodd"><path d="M123251 0H43275C31334 0 21112 4203 12610 12610S0 31238 0 43275v75946c0 12037 4203 22259 12610 30665 8407 8407 18628 12610 30665 12610h35555c-2484 9552-5541 18628-9362 27130-3726 8598-10126 16813-18915 24647 16909-4394 31907-10986 45185-19680 13183-8597 24647-19392 34104-32098h28659c11941 0 22163-4299 30665-12610 8502-8406 12609-18628 12609-30665V43274c0-11941-4203-22163-12609-30665C180759 4107 170538-1 158501-1h-35250zm142705 153834h-25328l-3637 11273h-22819l27231-68404h24469l27113 68404h-23408l-3620-11273zm-4732-14808l-7898-24585-7932 24585h15830zm-129905-36769c2960 1951 4898 3189 5813 3681 1346 730 3194 1578 5490 2545l-6585 12605c-3320-1527-6621-3325-9868-5429-3266-2104-5544-3681-6836-4733-5257 2155-11842 3241-19773 3241-11717 0-20957-2884-27722-8652-8002-6820-12003-16405-12003-28755 0-11994 3498-21308 10496-27958 6998-6633 16759-9958 29318-9958 12793 0 22661 3240 29624 9738 6961 6481 10443 15777 10443 27856 0 10756-2799 19357-8397 25821zm-18248-11553c1902-3207 2853-8007 2853-14404 0-7346-1453-12588-4342-15743-2907-3139-6890-4716-11986-4716-4755 0-8594 1611-11537 4818-2961 3206-4432 8228-4432 15048 0 7957 1435 13538 4306 16744 2889 3206 6836 4818 11842 4818 1615 0 3140-153 4575-441-2009-1832-5167-3546-9492-5174l3732-8093c2117 356 3768 815 4934 1341 1184 526 3481 1917 6908 4173 807 526 1687 1069 2638 1629zm220262-3486v75946c0 6878-1242 13374-3726 19392s-6114 11464-11081 16335c-2101 2102-4394 4013-6687 5636-2389 1720-4872 3153-7356 4394-96 96-287 96-382 191-3248 1529-6592 2580-10031 3343-3630 765-7356 1147-11177 1147h-36600c478 1528 955 3057 1529 4585 1433 4203 3152 8407 4967 12514v95c1624 3822 3917 7452 6687 11082 2866 3726 6305 7356 10413 11081 2961 2579 3248 7068 573 10030-1815 2102-4585 2866-7068 2197-8789-2293-17196-5158-25029-8598-7833-3439-15285-7451-22259-12036-6878-4491-13374-9649-19392-15285-5063-4776-9839-10031-14329-15572h-25029c-4681 0-9267-573-13565-1720-4299-1146-8407-2961-12324-5350-3343-2006-4394-6400-2388-9744 2006-3343 6401-4394 9744-2388 2675 1624 5541 2866 8693 3726 3057 860 6400 1242 9839 1242h28564c2197 0 4298 956 5731 2866 4490 6018 9457 11559 14903 16622 5349 5063 11176 9649 17481 13756 6018 3917 12419 7452 19202 10509-1338-2197-2388-4394-3439-6592-1910-4394-3725-8884-5350-13661-1528-4490-2961-9171-4203-13852-287-764-383-1624-383-2484 0-3917 3152-7165 7165-7165h45962c2866 0 5541-287 8120-859 2484-573 4777-1338 6974-2293 96-96 192-96 287-191 1815-860 3630-1911 5254-3057 1719-1241 3344-2579 4872-4203 3535-3535 6210-7451 7929-11655 1720-4204 2580-8884 2580-13947V87309c0-5063-860-9744-2579-13948-1720-4203-4394-8120-7930-11654-3535-3535-7451-6210-11654-7930-4204-1719-8885-2579-13948-2579h-48063c-3917 0-7165-3152-7165-7165 0-3917 3152-7165 7165-7165h48063c6878 0 13279 1242 19297 3726s11368 6113 16336 10985c4872 4872 8598 10318 10986 16336 2484 6018 3726 12419 3726 19297h96z" fill-rule="nonzero"/></svg>