<svg xmlns="http://www.w3.org/2000/svg" viewBox="0 0 1151.57 1333.33" shape-rendering="geometricPrecision" text-rendering="geometricPrecision" image-rendering="optimizeQuality" fill-rule="evenodd" clip-rule="evenodd"><path d="M863.45 813.37c62.59 0 119.34 25.46 160.46 66.41 41.11 41.11 66.41 97.7 66.41 160.45 0 45.78-13.65 88.55-36.95 124.17l98.2 107.02-67.74 61.91-94.71-104.19c-35.96 23.96-79.23 37.95-125.67 37.95-62.58 0-119.33-25.46-160.45-66.41-41.11-41.11-66.41-97.7-66.41-160.45 0-62.58 25.47-119.34 66.41-160.45 41.12-41.11 97.7-66.41 160.45-66.41zM111.92 195.65C272.64 18.28 458.19-78.05 597.31 79.67c36.56 1.75 69.19 13.78 96.39 39.48 57.21 53.84 66.07 154.48 39.93 234.4v69.81c17.72 11.67 29.2 33.5 34.38 58.33 3.5 15.97 4.31 33.69 2.63 50.53-1.75 17.48-6.06 34.13-12.98 47.98-9.93 19.65-25.08 33.5-45.6 36.5-20.09 21.4-39.74 44.29-57.28 66.32-19.22 24.2-35.62 47.1-47.04 65.88-8.87 14.47-6.06 24.02-2.81 34.81 1.5 5.37 3.19 10.98 4.31 17.03 22.31 4.83 43.26 9.01 62.86 12.8a309.39 309.39 0 00-35.8 37.13c-16.21-3.26-33.35-6.89-51.46-11-10.18-2.18-16.85-11.3-16.85-21.21 0-8.42-2.18-15.79-4.11-22.89-6.06-20.28-11.23-38.43 7.3-69.13 12.53-20.71 30.25-45.35 50.15-70.44 19.84-25.02 42.56-51.16 65.63-75.17 4.56-4.93 11.04-7.11 17.35-6.68h.19c6.05-.19 11.23-5.43 15.34-13.41 4.5-8.85 7.3-20.09 8.43-32.19 1.3-12.48.43-25.7-1.94-37.56-3.5-16.65-9.98-30.07-19.02-32.44-9.93-2.56-16.41-11.43-16.41-21.15V335.2l-.69-.19c-3.86-28.77-11.41-52.97-22.02-73.06-13.61-17.03-33.51-31.51-59.21-50.35l-2.81-2.13c-5.36-3.86-10.8-7.79-16.41-11.23-85.97 55.72-127.65 42.8-197.02 54.22-62.83 10.35-113.86 33.69-140.63 76.48v108.44c0 10.35-7.11 19.02-16.84 21.15-8.67 2.61-15.1 15.79-18.59 32.19-2.56 11.91-3.24 25.07-1.94 37.62 1.06 12.1 3.87 23.33 8.43 32.19 4.11 7.99 9.29 13.41 15.34 13.41h1.31c6.24 0 12.1 2.56 15.97 6.67 23.08 24.21 45.79 50.35 65.69 75.37 20.09 25.09 37.56 49.73 50.1 70.44 21.41 35 14.23 55.09 7.3 74.99-1.93 5.8-4.06 11.41-4.06 17.03 0 11.05-8.23 20.09-18.59 21.65-41.93 9.48-78.43 16.15-110.61 22.21-148.43 27.89-198.34 37.19-201.77 216.06h525.39c1.63 14.89 4.31 29.45 7.99 43.61H21.83c-12.11 0-21.84-9.67-21.84-21.77 0-235.96 56.15-246.5 237.65-280.44 28.76-5.43 60.89-11.42 96.13-19.03 1.31-4.74 2.81-9.05 4.31-13.35 3.68-10.42 7.36-20.77-3.43-38.24-11.48-18.85-27.89-41.74-47.11-65.89-17.53-22.08-37.18-44.98-57.27-66.32-20.53-3.06-35.62-16.91-45.55-36.57-6.92-13.59-11.23-30.44-12.97-47.91-1.5-16.91-.69-34.63 2.55-50.6 5.19-24.83 16.47-46.42 33.94-58.08l-23.52-14.04c-6.3-69.81 12.11-190.97-73.05-213.86l.24-.25zM975.88 927.8c-28.77-28.76-68.56-46.63-112.44-46.63-43.87 0-83.66 17.86-112.43 46.63-28.76 28.76-46.63 68.57-46.63 112.43 0 43.87 17.86 83.66 46.63 112.44 28.76 28.76 68.56 46.63 112.44 46.63 43.87 0 83.66-17.86 112.43-46.63 28.76-28.78 46.63-68.57 46.63-112.44 0-43.87-17.86-83.67-46.63-112.43z" fill-rule="nonzero"/></svg>